<?xml version="1.0" encoding="UTF-8"?>
<svg width="342px" height="95px" viewBox="0 0 342 95" version="1.1" xmlns="http://www.w3.org/2000/svg" xmlns:xlink="http://www.w3.org/1999/xlink">
    <title>Artboard Copy 10</title>
    <g id="Artboard-Copy-10" stroke="none" stroke-width="1" fill="none" fill-rule="evenodd">
        <path d="M32.3515054,23.310371 L33.4272747,24.9760784 C36.7260354,30.083837 41.3989506,33.9415108 46.7384472,36.2499983 C50.8735538,38.0377776 55.4084475,38.8963524 60.0144884,38.68692 L60.0144884,38.68692 L60.3620522,56.8257554 C60.3557732,62.9244357 58.5905232,68.7477227 55.4473775,73.6957209 C52.2986228,78.6525489 47.7670502,82.7309613 42.2357785,85.3278455 L42.2357785,85.3278455 L32.064037,90.1033901 L20.3893572,84.1464535 C15.3127769,81.5561583 11.1650788,77.6682706 8.26682426,73.0061972 C5.36971406,68.3459646 3.7209941,62.9121718 3.64098769,57.2275884 L3.64098769,57.2275884 L3.63847057,38.6771291 C8.29507156,38.960603 12.8961606,38.1798826 17.1185617,36.4661354 C22.6045857,34.2395213 27.4513493,30.4378708 30.9500363,25.3488715 L30.9500363,25.3488715 L32.3515054,23.310371 Z" id="Rectangle" stroke="#34158B" stroke-width="7" fill="#A1FFB8"></path>
        <g id="TRUE-COMMIT" transform="translate(80.760000, 8.800000)" fill="#34158B" fill-rule="nonzero">
            <polygon id="Path" points="21.12 35.2 21.12 7.04 35.2 7.04 35.2 0 0 0 0 7.04 14.08 7.04 14.08 35.2"></polygon>
            <path d="M40.48,35.2 L47.52,35.2 L47.52,21.12 L54.604,21.12 L66.572,35.2 L75.68,35.2 L63.756,21.12 L65.12,21.12 C71.28,21.12 75.68,16.72 75.68,10.56 C75.68,4.4 71.28,0 65.12,0 L40.48,0 L40.48,35.2 Z M47.52,14.08 L47.52,7.04 L65.12,7.04 C67.32,7.04 68.64,8.36 68.64,10.56 C68.64,12.76 67.32,14.08 65.12,14.08 L47.52,14.08 Z" id="Shape"></path>
            <path d="M82.72,24.64 C82.72,30.8 87.12,35.2 93.28,35.2 L107.36,35.2 C113.52,35.2 117.92,30.8 117.92,24.64 L117.92,0 L110.88,0 L110.88,24.64 C110.88,26.84 109.56,28.16 107.36,28.16 L93.28,28.16 C91.08,28.16 89.76,26.84 89.76,24.64 L89.76,0 L82.72,0 L82.72,24.64 Z" id="Path"></path>
            <polygon id="Path" points="124.96 0 124.96 35.2 160.16 35.2 160.16 28.16 132 28.16 132 21.12 153.12 21.12 153.12 14.08 132 14.08 132 7.04 160.16 7.04 160.16 0"></polygon>
            <path d="M1.76,68.64 C1.76,74.8 6.16,79.2 12.32,79.2 L26.4,79.2 C32.56,79.2 36.96,74.8 36.96,68.64 L36.96,67.188 L29.92,67.188 L29.92,68.64 C29.92,70.84 28.6,72.16 26.4,72.16 L12.32,72.16 C10.12,72.16 8.8,70.84 8.8,68.64 L8.8,54.56 C8.8,52.36 10.12,51.04 12.32,51.04 L26.4,51.04 C28.6,51.04 29.92,52.36 29.92,54.56 L29.92,56.012 L36.96,56.012 L36.96,54.56 C36.96,48.4 32.56,44 26.4,44 L12.32,44 C6.16,44 1.76,48.4 1.76,54.56 L1.76,68.64 Z" id="Path"></path>
            <path d="M44,68.64 C44,74.8 48.4,79.2 54.56,79.2 L68.64,79.2 C74.8,79.2 79.2,74.8 79.2,68.64 L79.2,54.56 C79.2,48.4 74.8,44 68.64,44 L54.56,44 C48.4,44 44,48.4 44,54.56 L44,68.64 Z M51.04,68.64 L51.04,54.56 C51.04,52.36 52.36,51.04 54.56,51.04 L68.64,51.04 C70.84,51.04 72.16,52.36 72.16,54.56 L72.16,68.64 C72.16,70.84 70.84,72.16 68.64,72.16 L54.56,72.16 C52.36,72.16 51.04,70.84 51.04,68.64 Z" id="Shape"></path>
            <polygon id="Path" points="104.412 68.64 110.308 68.64 121.44 53.46 121.44 79.2 128.48 79.2 128.48 44 119.372 44 107.36 60.72 95.348 44 86.24 44 86.24 79.2 93.28 79.2 93.28 53.46"></polygon>
            <polygon id="Path" points="153.692 68.64 159.588 68.64 170.72 53.46 170.72 79.2 177.76 79.2 177.76 44 168.652 44 156.64 60.72 144.628 44 135.52 44 135.52 79.2 142.56 79.2 142.56 53.46"></polygon>
            <polygon id="Path" points="184.8 79.2 220 79.2 220 72.16 205.92 72.16 205.92 51.04 220 51.04 220 44 184.8 44 184.8 51.04 198.88 51.04 198.88 72.16 184.8 72.16"></polygon>
            <polygon id="Path" points="246.4 79.2 246.4 51.04 260.48 51.04 260.48 44 225.28 44 225.28 51.04 239.36 51.04 239.36 79.2"></polygon>
        </g>
        <path d="M54.2222222,4 L54.2222222,15.7777778 C54.2222222,28.0507722 44.2729944,38 32,38 C19.7270056,38 9.77777778,28.0507722 9.77777778,15.7777778 L9.77777778,4" id="Path" stroke="#34158B" stroke-width="7" transform="translate(32.000000, 21.000000) rotate(-180.000000) translate(-32.000000, -21.000000) "></path>
        <line x1="45" y1="57" x2="19" y2="57" id="Line" stroke="#34158B" stroke-width="7" stroke-linecap="square"></line>
        <line x1="32.36" y1="58.5" x2="32.36" y2="88" id="Line" stroke="#34158B" stroke-width="7" stroke-linecap="square"></line>
    </g>
</svg>