<svg width="32" height="47" viewBox="0 0 32 47" fill="none" xmlns="http://www.w3.org/2000/svg">
<path fill-rule="evenodd" clip-rule="evenodd" d="M16 3.48469C10.8076 3.48469 6.59835 7.65746 6.59835 12.8048V16.73C7.02806 16.6038 7.45115 16.4569 7.86607 16.29C10.3092 15.3069 12.4666 13.6293 14.0244 11.383L16.2222 8.2139L18.1931 11.2392C19.6567 13.4858 21.7292 15.182 24.0986 16.1975C24.5241 16.3799 24.959 16.5402 25.4016 16.6778V12.8048C25.4016 7.65746 21.1924 3.48469 16 3.48469ZM28.9168 17.2748V12.8048C28.9168 5.73292 23.1337 0 16 0C8.86624 0 3.0832 5.73292 3.0832 12.8048V17.2857C2.67867 17.297 2.27211 17.2905 1.86463 17.2659L0 17.1534L0.00151908 28.2521L0.00169148 28.2642C0.0464489 31.4167 0.968999 34.4305 2.58937 37.0144C4.21044 39.5994 6.53097 41.7558 9.37072 43.1922L16 46.5455L21.887 43.8055C24.9729 42.3693 27.5015 40.1131 29.258 37.372C31.0113 34.6357 31.9965 31.4145 32 28.0415L32 28.0239L31.7906 17.1881L29.988 17.2694C29.6297 17.2855 29.2724 17.2872 28.9168 17.2748ZM16.1464 14.3891C14.2763 16.6949 11.8682 18.4404 9.18804 19.5188C7.3936 20.2408 5.47631 20.6641 3.51565 20.7565L3.51667 28.227C3.55439 30.7299 4.28742 33.1219 5.57468 35.1746C6.86442 37.2313 8.70953 38.9457 10.9683 40.0882L14.4232 41.8358V29.8687H7.71427V26.3841H24.2857V29.8687H17.9383V41.7937L20.3931 40.6512C22.8624 39.5019 24.885 37.6975 26.2909 35.5035C27.6913 33.318 28.4787 30.7477 28.4848 28.0549L28.3433 20.7357C26.3866 20.6152 24.4791 20.157 22.7036 19.3961C20.1706 18.3104 17.9043 16.6076 16.1464 14.3891Z" fill="#34158B"/>
</svg>
