<svg width="23" height="23" viewBox="0 0 23 23" fill="none" xmlns="http://www.w3.org/2000/svg">
<path d="M5.83594 19.5723H7.75977C7.90625 19.5723 8.00391 19.6114 8.11133 19.7188L9.46875 21.0762C10.7676 22.375 12.0176 22.3653 13.3164 21.0762L14.6738 19.7188C14.7812 19.6114 14.8789 19.5723 15.0254 19.5723H16.9492C18.7656 19.5723 19.6641 18.6836 19.6641 16.8575V14.9434C19.6641 14.7969 19.7031 14.6895 19.8105 14.5821L21.1582 13.2246C22.457 11.9356 22.457 10.6758 21.1582 9.38675L19.8105 8.02933C19.6934 7.91214 19.6641 7.82425 19.6641 7.67777V5.75394C19.6641 3.92777 18.7656 3.03909 16.9492 3.03909H15.0254C14.8789 3.03909 14.7715 3.00003 14.6738 2.89261L13.3164 1.53519C12.0176 0.236359 10.7773 0.25589 9.46875 1.54495L8.11133 2.89261C8.01367 2.99027 7.90625 3.03909 7.75977 3.03909H5.83594C4.00977 3.03909 3.12109 3.918 3.12109 5.75394V7.67777C3.12109 7.82425 3.08203 7.92191 2.97461 8.02933L1.62695 9.38675C0.328125 10.6758 0.328125 11.9356 1.62695 13.2246L2.97461 14.5821C3.08203 14.6895 3.12109 14.7969 3.12109 14.9434V16.8575C3.12109 18.6836 4.01953 19.5723 5.83594 19.5723ZM6.28516 17.3555C5.48438 17.3555 5.35742 17.2188 5.34766 16.4278V14.1914C5.34766 13.9278 5.2793 13.7325 5.08398 13.5469L3.50195 11.9746C2.93555 11.3985 2.93555 11.2227 3.50195 10.6563L5.08398 9.07425C5.2793 8.8887 5.34766 8.69339 5.35742 8.43948V6.20316C5.35742 5.39261 5.47461 5.27542 6.28516 5.27542L8.51172 5.26566C8.77539 5.26566 8.98047 5.1973 9.15625 5.01175L10.7383 3.42972C11.3047 2.86331 11.4707 2.85355 12.0469 3.42972L13.6289 5.01175C13.8047 5.1973 14.0098 5.26566 14.2734 5.26566L16.5 5.27542C17.3008 5.27542 17.4277 5.41214 17.4277 6.20316V8.43948C17.4375 8.69339 17.5059 8.8887 17.7012 9.07425L19.2832 10.6563C19.8496 11.2227 19.8496 11.3985 19.2832 11.9746L17.7012 13.5469C17.5059 13.7325 17.4375 13.9278 17.4375 14.1914L17.4277 16.4278C17.4277 17.2188 17.3008 17.3555 16.5 17.3555H14.2734C14.0098 17.3555 13.8242 17.4239 13.6289 17.6192L12.0469 19.2012C11.4805 19.7676 11.3047 19.7676 10.7383 19.2012L9.15625 17.6192C8.96094 17.4239 8.77539 17.3555 8.51172 17.3555H6.28516ZM10.4355 15.7149C10.8359 15.7149 11.207 15.5 11.4316 15.1582L15.3281 9.19144C15.4844 8.95706 15.582 8.70316 15.582 8.47855C15.582 7.90237 15.0645 7.49222 14.5078 7.49222C14.1367 7.49222 13.8242 7.68753 13.5801 8.08792L10.4258 13.1758L8.9707 11.418C8.73633 11.1446 8.47266 11.0078 8.15039 11.0078C7.57422 11.0078 7.10547 11.4668 7.10547 12.043C7.10547 12.3164 7.19336 12.541 7.4082 12.795L9.41016 15.1778C9.69336 15.5196 10.0254 15.7149 10.4355 15.7149Z" fill="#3CE083"/>
</svg>
